<?xml version="1.0" standalone="no"?>
<!DOCTYPE svg PUBLIC "-//W3C//DTD SVG 20010904//EN"
 "http://www.w3.org/TR/2001/REC-SVG-20010904/DTD/svg10.dtd">
<svg version="1.0" xmlns="http://www.w3.org/2000/svg"
 width="512.000000pt" height="512.000000pt" viewBox="0 0 512.000000 512.000000"
 preserveAspectRatio="xMidYMid meet">

<g transform="translate(0.000000,512.000000) scale(0.100000,-0.100000)"
fill="#CB8AD5" stroke="none">
<path d="M1448 4760 c-60 -10 -141 -54 -179 -97 -42 -49 -60 -88 -228 -510
l-153 -383 -127 0 c-70 0 -154 -5 -187 -11 -154 -28 -273 -130 -335 -284 l-24
-60 -3 -1310 c-2 -820 1 -1334 7 -1373 30 -194 181 -344 376 -372 95 -13 3624
-13 3720 0 158 23 292 131 353 284 14 34 17 97 22 356 l5 314 31 6 c49 11 112
51 138 89 45 66 47 93 44 676 l-3 550 -24 48 c-28 57 -76 96 -139 112 l-47 12
-5 314 c-5 289 -7 318 -26 365 -45 110 -121 191 -225 239 -80 36 -142 45 -319
45 l-158 0 -1178 491 c-741 308 -1199 494 -1234 500 -30 5 -55 8 -55 8 0 -1
-21 -5 -47 -9z m1022 -600 l935 -389 -254 -1 -253 0 -637 210 c-350 116 -650
210 -668 210 -59 0 -80 -32 -158 -231 l-71 -184 -123 -3 c-97 -2 -122 0 -118
10 107 271 273 680 287 708 20 40 50 58 95 59 18 1 399 -153 965 -389z m-530
-299 l265 -89 -307 -1 -306 -1 27 73 c15 39 31 80 34 90 4 9 10 17 14 17 5 0
127 -40 273 -89z m2421 -337 c52 -29 93 -80 109 -135 6 -19 10 -156 10 -306
l0 -272 -542 -3 c-527 -4 -545 -5 -616 -26 -267 -81 -465 -287 -529 -550 -22
-92 -21 -257 2 -347 67 -264 257 -461 520 -541 l90 -28 538 -4 537 -4 0 -271
c0 -161 -4 -288 -11 -310 -13 -49 -73 -115 -124 -138 -38 -18 -122 -19 -1891
-19 l-1850 0 -55 27 c-35 19 -64 43 -84 71 l-30 44 -3 1326 c-2 879 1 1339 7
1362 14 49 63 104 113 129 l43 21 1859 0 1858 0 49 -26z m329 -1464 l0 -530
-621 0 c-691 0 -686 0 -809 67 -167 93 -270 269 -270 463 0 239 146 436 380
511 50 16 109 18 688 18 l632 1 0 -530z"/>
<path d="M913 3114 c-39 -19 -67 -74 -58 -113 3 -16 20 -41 36 -57 l30 -29
212 -3 c117 -2 232 -1 256 3 96 14 134 108 72 177 l-29 33 -244 3 c-206 2
-248 0 -275 -14z"/>
<path d="M910 2687 c-14 -7 -33 -29 -43 -50 -16 -31 -17 -42 -7 -72 6 -19 23
-44 37 -55 25 -19 40 -20 490 -20 l465 0 35 35 c32 32 35 39 30 78 -4 30 -15
50 -37 70 l-30 27 -458 0 c-344 0 -463 -3 -482 -13z"/>
<path d="M3424 2366 c-184 -60 -276 -275 -189 -445 57 -113 159 -176 285 -176
127 0 227 62 287 178 23 44 27 65 27 137 1 70 -4 94 -24 135 -31 64 -92 124
-154 155 -60 28 -171 36 -232 16z m140 -210 c40 -17 70 -74 61 -115 -17 -79
-118 -111 -175 -56 -16 15 -32 40 -35 56 -9 40 21 98 59 115 40 17 49 17 90 0z"/>
</g>
</svg>
