<?xml version="1.0" standalone="no"?>
<!DOCTYPE svg PUBLIC "-//W3C//DTD SVG 20010904//EN"
 "http://www.w3.org/TR/2001/REC-SVG-20010904/DTD/svg10.dtd">
<svg version="1.0" xmlns="http://www.w3.org/2000/svg"
 width="512.000000pt" height="512.000000pt" viewBox="0 0 512.000000 512.000000"
 preserveAspectRatio="xMidYMid meet">

<g transform="translate(0.000000,512.000000) scale(0.100000,-0.100000)"
fill="green" stroke="none">
<path d="M4117 4330 c-109 -28 -97 -17 -1194 -1113 l-1053 -1052 -352 351
c-204 203 -372 362 -398 377 -71 40 -154 60 -229 55 -119 -9 -147 -28 -363
-246 -170 -171 -197 -204 -211 -247 -26 -79 -30 -127 -17 -191 28 -137 10
-116 709 -817 454 -456 660 -655 692 -672 65 -34 157 -48 225 -36 125 24 56
-41 1463 1364 722 722 1333 1338 1357 1371 60 79 88 173 82 269 -8 119 -26
148 -229 352 -212 214 -246 237 -368 241 -42 2 -93 -1 -114 -6z"/>
</g>
</svg>
