<?xml version="1.0" standalone="no"?>
<!DOCTYPE svg PUBLIC "-//W3C//DTD SVG 20010904//EN"
 "http://www.w3.org/TR/2001/REC-SVG-20010904/DTD/svg10.dtd">
<svg version="1.0" xmlns="http://www.w3.org/2000/svg"
 width="22px" height="22px" viewBox="0 0 512.000000 512.000000"
 preserveAspectRatio="xMidYMid meet">

<g transform="translate(0.000000,512.000000) scale(0.100000,-0.100000)"
fill="#CB8AD5" stroke="none">
<path d="M2380 4740 c-803 -62 -1506 -517 -1825 -1182 -417 -870 -89 -1880
785 -2414 254 -154 538 -257 865 -311 85 -14 166 -18 355 -18 254 0 347 9 548
56 l83 19 306 -247 c189 -152 321 -252 346 -260 73 -25 152 9 186 81 20 41 21
58 21 455 l0 412 111 107 c172 164 296 333 394 537 213 440 247 918 99 1365
-142 428 -452 809 -865 1065 -257 159 -562 269 -877 315 -154 22 -390 31 -532
20z m480 -336 c227 -33 395 -86 615 -195 204 -101 318 -182 481 -344 226 -224
359 -457 429 -748 81 -337 39 -679 -125 -1012 -104 -210 -219 -357 -413 -522
-48 -41 -93 -84 -100 -96 -8 -16 -13 -108 -17 -319 l-5 -297 -216 173 c-156
125 -225 175 -251 180 -25 4 -76 -4 -174 -29 -493 -124 -1001 -72 -1438 146
-497 249 -827 664 -926 1165 -28 139 -31 375 -7 509 61 339 216 628 468 870
160 154 286 241 494 341 367 176 773 237 1185 178z"/>
</g>
</svg>
