<?xml version="1.0" standalone="no"?>
<!DOCTYPE svg PUBLIC "-//W3C//DTD SVG 20010904//EN"
 "http://www.w3.org/TR/2001/REC-SVG-20010904/DTD/svg10.dtd">
<svg version="1.0" xmlns="http://www.w3.org/2000/svg"
 width="55px" height="55px" viewBox="0 0 512.000000 512.000000"
 preserveAspectRatio="xMidYMid meet">

<g transform="translate(0.000000,512.000000) scale(0.100000,-0.100000)"
fill="#a8a8a8" stroke="none">
<path d="M2445 4986 c-90 -42 -138 -107 -154 -206 -7 -42 -11 -388 -11 -977
l0 -913 -1037 0 -1038 0 -50 -24 c-27 -12 -66 -41 -86 -63 -74 -81 -70 -3 -67
-1318 l3 -1180 25 -49 c14 -27 42 -64 64 -82 81 -69 -120 -64 2470 -63 1766 0
2349 3 2373 12 60 22 117 72 148 128 l30 54 0 2255 0 2255 -25 49 c-14 27 -42
64 -64 82 -79 68 -2 64 -1330 64 l-1201 0 -50 -24z m2251 -321 c30 -19 60 -49
79 -79 l30 -49 0 -1946 0 -1946 -30 -45 c-17 -24 -51 -58 -75 -75 l-45 -30
-1180 -8 c-649 -4 -1535 -6 -1970 -5 -779 3 -791 3 -835 24 -54 25 -94 64
-124 119 -21 40 -21 42 -24 869 -3 914 -4 893 59 969 17 21 50 48 72 60 l42
22 1010 5 1010 5 2 970 c2 626 6 983 13 1006 16 59 63 114 121 143 l54 26 871
-2 871 -3 49 -30z"/>
<path d="M2903 4569 c-78 -38 -73 38 -73 -1108 l0 -1021 -1052 -2 c-1163 -3
-1075 2 -1119 -65 -18 -27 -19 -67 -19 -856 0 -823 0 -829 21 -858 45 -64
-108 -59 2006 -59 1848 0 1930 1 1962 18 19 10 43 34 53 53 17 32 18 112 18
1922 0 2118 7 1937 -74 1977 -42 20 -57 20 -862 20 -807 0 -820 0 -861 -21z
m-412 -2372 c69 -46 70 -48 67 -464 -3 -357 -4 -373 -24 -399 -11 -15 -33 -37
-48 -48 -27 -20 -41 -21 -482 -24 -250 -1 -454 -6 -454 -10 0 -4 27 -77 60
-161 58 -147 65 -181 39 -181 -16 0 -623 469 -627 484 -4 17 10 28 332 276
351 269 348 268 262 51 -31 -79 -56 -144 -56 -147 0 -2 158 -4 350 -4 l350 0
0 273 c0 254 1 274 20 305 44 71 143 95 211 49z"/>
</g>
</svg>
