<?xml version="1.0" standalone="no"?>
<!DOCTYPE svg PUBLIC "-//W3C//DTD SVG 20010904//EN"
 "http://www.w3.org/TR/2001/REC-SVG-20010904/DTD/svg10.dtd">
<svg version="1.0" xmlns="http://www.w3.org/2000/svg"
 width="20px" height="20px" viewBox="0 0 512.000000 512.000000"
 preserveAspectRatio="xMidYMid meet">

<g transform="translate(0.000000,512.000000) scale(0.100000,-0.100000)"
fill="#000000" stroke="none">
<path d="M2538 3946 c-993 -293 -1821 -539 -1838 -546 -60 -25 -79 -107 -36
-157 17 -19 282 -157 866 -448 l842 -420 423 -846 c296 -591 432 -853 451
-868 53 -41 131 -18 157 46 29 75 1077 3651 1077 3678 0 41 -58 95 -101 94
-19 -1 -847 -241 -1841 -533z m675 -578 l-783 -783 -690 345 c-379 190 -690
347 -690 350 0 4 2914 865 2940 869 3 1 -347 -351 -777 -781z m504 -850 c-238
-808 -434 -1468 -437 -1468 -3 0 -160 311 -350 690 l-345 690 780 780 c428
428 780 778 781 777 1 -1 -192 -662 -429 -1469z"/>
</g>
</svg>
