<?xml version="1.0" standalone="no"?>
<!DOCTYPE svg PUBLIC "-//W3C//DTD SVG 20010904//EN"
 "http://www.w3.org/TR/2001/REC-SVG-20010904/DTD/svg10.dtd">
<svg version="1.0" xmlns="http://www.w3.org/2000/svg"
 width="50px" height="50px" viewBox="0 0 512.000000 512.000000"
 preserveAspectRatio="xMidYMid meet">

<g transform="translate(0.000000,512.000000) scale(0.100000,-0.100000)"
fill="#a8a8a8" stroke="none">
<path d="M450 5113 c-187 -32 -338 -170 -391 -358 -21 -75 -21 -4315 0 -4390
47 -165 160 -285 323 -342 51 -17 138 -18 2178 -18 2040 0 2127 1 2178 18 163
57 276 177 323 342 21 75 21 4315 0 4390 -46 162 -153 278 -317 341 -47 18
-119 19 -2159 20 -1160 1 -2121 -1 -2135 -3z m3767 -548 c164 -49 291 -189
323 -354 14 -74 14 -3228 0 -3302 -32 -165 -159 -305 -323 -354 -44 -13 -257
-15 -1657 -15 -1400 0 -1613 2 -1657 15 -164 49 -291 189 -323 354 -14 74 -14
3228 0 3302 31 163 158 304 319 353 71 22 3244 23 3318 1z"/>
<path d="M920 4369 c-64 -29 -117 -84 -140 -146 -20 -53 -20 -80 -20 -1663 0
-1583 0 -1610 20 -1663 23 -62 76 -117 140 -146 45 -20 58 -21 1640 -21 1582
0 1595 1 1640 21 64 29 117 84 140 146 20 53 20 80 20 1663 0 1583 0 1610 -20
1663 -23 62 -76 117 -140 146 -45 20 -58 21 -1640 21 -1582 0 -1595 -1 -1640
-21z m1230 -320 c0 -12 -45 -135 -100 -274 -55 -140 -100 -256 -100 -259 0 -4
274 -6 608 -6 460 0 611 -3 620 -12 9 -9 12 -75 12 -234 0 -189 -2 -225 -16
-238 -14 -14 -84 -16 -620 -16 -332 0 -604 -2 -604 -5 0 -3 45 -120 101 -260
55 -140 99 -265 97 -277 -2 -18 -10 -24 -33 -25 -26 -2 -107 57 -545 396 -429
331 -515 401 -515 422 0 20 85 90 510 417 281 216 519 397 530 401 27 11 55
-5 55 -30z"/>
</g>
</svg>
