<?xml version="1.0" standalone="no"?>
<!DOCTYPE svg PUBLIC "-//W3C//DTD SVG 20010904//EN"
 "http://www.w3.org/TR/2001/REC-SVG-20010904/DTD/svg10.dtd">
<svg version="1.0" xmlns="http://www.w3.org/2000/svg"
 width="512.000000pt" height="512.000000pt" viewBox="0 0 512.000000 512.000000"
 preserveAspectRatio="xMidYMid meet">

<g transform="translate(0.000000,512.000000) scale(0.100000,-0.100000)"
fill="#CB8AD5" stroke="none">
<path d="M2335 4909 c-598 -57 -1169 -354 -1563 -814 -540 -630 -710 -1484
-452 -2267 167 -507 490 -929 940 -1230 292 -195 611 -318 972 -374 157 -25
499 -25 656 0 361 56 680 179 972 374 450 301 773 723 940 1230 198 600 148
1236 -142 1804 -437 858 -1364 1368 -2323 1277z m560 -304 c432 -78 790 -258
1093 -550 334 -321 531 -693 619 -1165 27 -146 24 -524 -5 -680 -40 -216 -108
-415 -206 -604 -53 -104 -193 -317 -212 -323 -6 -2 -16 16 -23 39 -20 66 -93
205 -152 288 -69 98 -204 230 -314 308 -105 74 -282 165 -412 212 l-92 32 98
94 c242 231 351 495 339 826 -8 209 -61 375 -174 545 -168 253 -435 423 -734
469 -120 18 -200 18 -320 0 -426 -65 -771 -378 -881 -799 -27 -104 -37 -315
-19 -425 38 -239 146 -441 331 -616 l98 -94 -92 -32 c-375 -135 -669 -377
-822 -680 -23 -47 -48 -104 -56 -128 -7 -23 -17 -41 -23 -39 -19 6 -159 219
-212 323 -98 189 -166 388 -206 604 -18 96 -22 153 -22 350 0 256 8 322 65
539 186 703 757 1274 1460 1460 101 27 236 53 339 65 82 10 448 -3 535 -19z
m-177 -801 c289 -59 527 -284 603 -571 28 -104 30 -279 5 -378 -73 -284 -280
-496 -563 -577 -111 -32 -295 -32 -406 0 -283 81 -490 293 -563 577 -25 99
-23 274 5 378 107 402 513 655 919 571z m121 -1860 c416 -60 767 -252 951
-519 56 -81 111 -212 131 -312 l20 -94 -23 -20 c-13 -11 -66 -53 -119 -93
-733 -556 -1745 -556 -2478 0 -53 40 -106 82 -119 93 l-23 20 20 94 c20 100
75 231 131 312 181 264 531 456 940 519 132 20 434 20 569 0z"/>
</g>
</svg>
