<svg width="26" height="30" viewBox="0 0 26 30" fill="none" xmlns="http://www.w3.org/2000/svg">
<path d="M9.01461 0.0578833C8.27421 0.204368 7.52804 0.790305 7.21569 1.46999C7.00167 1.93288 6.92647 2.32546 6.92647 2.98757V3.50906H4.67637C3.39225 3.50906 2.29902 3.53249 2.1197 3.56765C1.03804 3.77859 0.210881 4.64577 0.0315674 5.77077C-0.141962 6.83132 0.413332 7.9446 1.36774 8.45437L1.76686 8.66531L1.80157 9.00515C1.8247 9.18679 2.17755 13.4759 2.58823 18.5384C3.0047 23.595 3.36333 27.8372 3.39225 27.9602C3.60049 28.8684 4.41608 29.6887 5.33 29.9055C5.85637 30.0344 20.1436 30.0344 20.67 29.9055C21.5839 29.6887 22.3995 28.8684 22.6077 27.9602C22.6367 27.8372 22.9953 23.595 23.4118 18.5384C23.8225 13.4759 24.1753 9.18679 24.1984 9.00515L24.2331 8.66531L24.6323 8.45437C25.5867 7.9446 26.142 6.83132 25.9684 5.77077C25.7891 4.64577 24.962 3.77859 23.8803 3.56765C23.701 3.53249 22.6077 3.50906 21.3236 3.50906H19.0735V2.98757C19.0735 2.70632 19.0446 2.33132 19.0157 2.15554C18.819 1.10085 17.9803 0.251243 16.9391 0.0520239C16.5574 -0.0182886 9.3848 -0.0182886 9.01461 0.0578833ZM16.8755 1.86843C17.2225 2.05007 17.3382 2.32546 17.3382 2.98171V3.50906H8.66176V2.98171C8.66176 2.33718 8.77745 2.05007 9.11294 1.87429C9.32118 1.76296 9.46 1.7571 12.9884 1.75124C16.5458 1.75124 16.6557 1.7571 16.8755 1.86843ZM23.8167 5.38406C24.077 5.51882 24.2794 5.85281 24.2794 6.14577C24.2794 6.43874 24.077 6.77273 23.8167 6.90749C23.5911 7.02468 23.4985 7.02468 13 7.02468C2.50147 7.02468 2.40892 7.02468 2.18333 6.90749C1.92304 6.77273 1.72059 6.43874 1.72059 6.14577C1.72059 5.86452 1.92304 5.51882 2.17176 5.38991C2.38 5.27273 2.54774 5.27273 12.9884 5.26687C23.5043 5.26687 23.5911 5.26687 23.8167 5.38406ZM22.4516 9.02859C22.44 9.16921 22.0872 13.4055 21.6765 18.4387C20.8667 28.3645 20.9303 27.802 20.5601 28.0833L20.3981 28.2063H5.60186L5.4399 28.0833C5.06971 27.802 5.13333 28.3645 4.32353 18.4387C3.91284 13.4055 3.56 9.16921 3.54843 9.02859L3.51372 8.78249H22.4863L22.4516 9.02859Z" fill="#F6F6F6"/>
<path d="M7.37186 10.6634C7.22725 10.7395 7.11157 10.8626 7.03637 11.0266L6.9149 11.2786L7.35451 18.5091C7.84618 26.6009 7.79412 26.1204 8.25108 26.3606C8.54608 26.5071 8.77745 26.5071 9.07245 26.3606C9.22863 26.2786 9.33853 26.1614 9.41951 25.9915L9.54098 25.7395L9.10137 18.5091C8.60971 10.4173 8.66176 10.8977 8.2048 10.6575C7.91559 10.511 7.65529 10.511 7.37186 10.6634Z" fill="#F6F6F6"/>
<path d="M12.5835 10.6634C12.4505 10.7337 12.3175 10.8684 12.248 11.0091C12.1324 11.2376 12.1324 11.343 12.1324 18.5091C12.1324 25.6809 12.1324 25.7805 12.248 26.0091C12.3811 26.2727 12.7108 26.4778 13 26.4778C13.2892 26.4778 13.6189 26.2727 13.752 26.0091C13.8676 25.7805 13.8676 25.6809 13.8676 18.5091C13.8676 11.3372 13.8676 11.2376 13.752 11.0091C13.5379 10.5813 13.0174 10.429 12.5835 10.6634Z" fill="#F6F6F6"/>
<path d="M17.7836 10.6634C17.3382 10.9036 17.3903 10.4466 16.8986 18.5091L16.459 25.7395L16.5805 25.9915C16.6615 26.1614 16.7714 26.2786 16.9275 26.3606C17.2225 26.5071 17.4539 26.5071 17.7489 26.3606C18.2059 26.1204 18.1538 26.6009 18.6455 18.5091L19.0851 11.2786L18.9636 11.0266C18.7496 10.5872 18.229 10.4231 17.7836 10.6634Z" fill="#F6F6F6"/>
</svg>
