<svg width="192" height="125" viewBox="0 0 192 125" fill="none" xmlns="http://www.w3.org/2000/svg">
<g filter="url(#filter0_di_35_67)">
<path d="M27.1223 57.0447C24.9665 57.0447 23.1147 56.7518 21.5669 56.1658C20.0192 55.591 18.7754 54.8171 17.8357 53.8442C16.896 52.8713 16.2437 51.7934 15.8789 50.6105L21.285 49.3004C21.5282 49.7979 21.882 50.2899 22.3463 50.7763C22.8106 51.2738 23.4353 51.6829 24.2202 52.0035C25.0162 52.3351 26.0167 52.501 27.2218 52.501C28.9243 52.501 30.3339 52.0864 31.4504 51.2572C32.567 50.4391 33.1253 49.0904 33.1253 47.211V42.3853H32.8268C32.5173 43.0044 32.064 43.6401 31.467 44.2923C30.8811 44.9446 30.1017 45.4918 29.1288 45.9341C28.167 46.3763 26.9564 46.5974 25.4971 46.5974C23.5403 46.5974 21.7659 46.1386 20.1739 45.221C18.593 44.2923 17.3327 42.9104 16.393 41.0752C15.4643 39.229 15 36.9184 15 34.1435C15 31.3464 15.4643 28.9861 16.393 27.0625C17.3327 25.1278 18.5985 23.6629 20.1905 22.668C21.7825 21.6619 23.5569 21.1589 25.5137 21.1589C27.0062 21.1589 28.2333 21.4132 29.1951 21.9217C30.168 22.4192 30.9419 23.0217 31.5168 23.7293C32.0917 24.4258 32.5284 25.0836 32.8268 25.7027H33.1585V21.4906H39.0787V47.3768C39.0787 49.5547 38.5591 51.3567 37.5199 52.7829C36.4807 54.209 35.06 55.2759 33.258 55.9834C31.456 56.691 29.4107 57.0447 27.1223 57.0447ZM27.172 41.8878C28.4434 41.8878 29.5268 41.5782 30.4223 40.9591C31.3178 40.34 31.9977 39.4501 32.462 38.2892C32.9263 37.1284 33.1585 35.7354 33.1585 34.1103C33.1585 32.5073 32.9263 31.1032 32.462 29.8982C32.0087 28.6932 31.3344 27.759 30.4389 27.0956C29.5544 26.4213 28.4655 26.0841 27.172 26.0841C25.8343 26.0841 24.7177 26.4323 23.8222 27.1288C22.9267 27.8253 22.2523 28.7816 21.7991 29.9977C21.3458 31.2027 21.1192 32.5736 21.1192 34.1103C21.1192 35.6691 21.3458 37.0345 21.7991 38.2063C22.2634 39.3671 22.9433 40.2737 23.8388 40.926C24.7453 41.5672 25.8564 41.8878 27.172 41.8878Z" fill="#8600B5"/>
<path d="M104.813 47.41C102.811 47.41 101.021 46.8959 99.4396 45.8677C97.8587 44.8396 96.6094 43.3471 95.6918 41.3903C94.7742 39.4335 94.3154 37.0566 94.3154 34.2596C94.3154 31.4294 94.7797 29.0414 95.7084 27.0956C96.6481 25.1388 97.9139 23.6629 99.5059 22.668C101.098 21.6619 102.872 21.1589 104.829 21.1589C106.322 21.1589 107.549 21.4132 108.511 21.9217C109.472 22.4192 110.235 23.0217 110.799 23.7293C111.363 24.4258 111.8 25.0836 112.109 25.7027H112.358V13H118.378V46.9622H112.474V42.9491H112.109C111.8 43.5682 111.352 44.226 110.766 44.9225C110.18 45.6079 109.406 46.1939 108.444 46.6803C107.482 47.1667 106.272 47.41 104.813 47.41ZM106.487 42.4848C107.759 42.4848 108.842 42.1421 109.738 41.4566C110.633 40.7601 111.313 39.7928 111.777 38.5546C112.242 37.3164 112.474 35.8736 112.474 34.2264C112.474 32.5791 112.242 31.1475 111.777 29.9314C111.324 28.7153 110.65 27.77 109.754 27.0956C108.87 26.4213 107.781 26.0841 106.487 26.0841C105.15 26.0841 104.033 26.4323 103.138 27.1288C102.242 27.8253 101.568 28.7871 101.114 30.0143C100.661 31.2414 100.435 32.6455 100.435 34.2264C100.435 35.8184 100.661 37.239 101.114 38.4882C101.579 39.7264 102.259 40.7049 103.154 41.4235C104.061 42.131 105.172 42.4848 106.487 42.4848Z" fill="#8600B5"/>
<path fill-rule="evenodd" clip-rule="evenodd" d="M52.7878 45.5C52.7878 45.5 49.5 45 46.5 49C44.8845 51.1541 42.9016 48.1232 43 48.5C41.5 43 42.6646 36.9456 42.6646 34.3144C42.6646 31.6833 43.1621 29.3782 44.1571 27.3993C45.1631 25.4204 46.5782 23.8837 48.4024 22.7892C48.9135 22.4825 49.4507 22.2188 50.0139 21.998C51.4607 21.431 53.0793 21.1474 54.8698 21.1474C57.3572 21.1474 59.5131 21.6947 61.3372 22.7892C63.1613 23.8837 64.5 26 64.5 26C64.5 26 66 27 67 27C68 27 69.5058 25.9886 69.5 26C69.5 26 70.6845 23.8951 72.5086 22.8006C74.3328 21.7061 76.4886 21.1589 78.9761 21.1589C81.4635 21.1589 83.6193 21.7061 85.4435 22.8006C87.2676 23.8951 88.6772 25.4318 89.6722 27.4107C90.6782 29.3896 91.3396 31.694 91.3396 34.3252C91.3396 36.9563 92.4738 40.9597 91.3396 47.4597C91.3396 47.4597 89.411 49 87.5 48C84.5 45 82.8988 45 82.8988 45C80.4113 45 75.8241 45.0945 74 44C73.9037 43.9422 72.5 43.5 69 42C69 42 68 41.4152 67 41.5C65.6731 41.5 65 42 65 42L60.4326 44.2923C58.6085 45.3868 55.2753 45.5 52.7878 45.5ZM52.8715 39.1576H56.7598V35.2693H60.6481V31.381L56.7598 31.3696V27.4927H52.8715V31.381H48.9831V35.2693H52.8715V39.1576ZM73.2852 31.381V35.2693H76.6875L78.6316 33.3252L76.6875 31.381H73.2852ZM81.0618 27.4927V30.895L79.1177 32.8391L77.1735 30.895V27.4927H81.0618ZM84.9502 35.2693V31.381H81.5479L79.6037 33.3252L81.5479 35.2693H84.9502ZM81.0618 39.1576H77.1735V35.7554L79.1177 33.8112L81.0618 35.7554V39.1576Z" fill="#8600B5"/>
<path d="M53.3964 89.1793C51.2406 89.1793 49.3888 88.8863 47.841 88.3004C46.2933 87.7255 45.0495 86.9516 44.1098 85.9788C43.1701 85.0059 42.5179 83.928 42.153 82.7451L47.5591 81.435C47.8023 81.9325 48.1561 82.4245 48.6204 82.9109C49.0848 83.4084 49.7094 83.8174 50.4943 84.138C51.2903 84.4697 52.2908 84.6355 53.4959 84.6355C55.1984 84.6355 56.608 84.221 57.7246 83.3918C58.8412 82.5737 59.3995 81.2249 59.3995 79.3455V74.5198H59.101C58.7914 75.1389 58.3381 75.7746 57.7412 76.4269C57.1552 77.0792 56.3758 77.6264 55.4029 78.0686C54.4411 78.5108 53.2305 78.7319 51.7712 78.7319C49.8144 78.7319 48.04 78.2731 46.4481 77.3555C44.8671 76.4269 43.6068 75.045 42.6671 73.2098C41.7385 71.3635 41.2741 69.0529 41.2741 66.278C41.2741 63.481 41.7385 61.1207 42.6671 59.197C43.6068 57.2623 44.8727 55.7975 46.4646 54.8025C48.0566 53.7965 49.831 53.2935 51.7878 53.2935C53.2803 53.2935 54.5075 53.5477 55.4693 54.0563C56.4421 54.5538 57.216 55.1563 57.7909 55.8638C58.3658 56.5603 58.8025 57.2181 59.101 57.8372H59.4326V53.6251H65.3528V79.5114C65.3528 81.6893 64.8332 83.4913 63.794 84.9175C62.7548 86.3436 61.3342 87.4104 59.5321 88.118C57.7301 88.8255 55.6849 89.1793 53.3964 89.1793ZM53.4461 74.0223C54.7175 74.0223 55.8009 73.7128 56.6964 73.0937C57.5919 72.4746 58.2718 71.5846 58.7361 70.4238C59.2005 69.263 59.4326 67.87 59.4326 66.2449C59.4326 64.6418 59.2005 63.2378 58.7361 62.0328C58.2829 60.8277 57.6085 59.8935 56.713 59.2302C55.8286 58.5558 54.7396 58.2186 53.4461 58.2186C52.1084 58.2186 50.9918 58.5669 50.0963 59.2634C49.2009 59.9599 48.5265 60.9162 48.0732 62.1323C47.6199 63.3373 47.3933 64.7082 47.3933 66.2449C47.3933 67.8037 47.6199 69.169 48.0732 70.3409C48.5375 71.5017 49.2174 72.4083 50.1129 73.0605C51.0195 73.7017 52.1305 74.0223 53.4461 74.0223Z" fill="#8600B5"/>
<path d="M76.8907 79.6109C75.2766 79.6109 73.8228 79.3234 72.5293 78.7485C71.2469 78.1626 70.2298 77.3003 69.4781 76.1616C68.7374 75.0229 68.367 73.6188 68.367 71.9495C68.367 70.5123 68.6323 69.3238 69.163 68.3841C69.6936 67.4444 70.4178 66.6926 71.3354 66.1288C72.253 65.565 73.2866 65.1393 74.4364 64.8519C75.5972 64.5534 76.7967 64.3378 78.0349 64.2051C79.5274 64.0504 80.738 63.9122 81.6666 63.7906C82.5953 63.6579 83.2697 63.4589 83.6898 63.1936C84.1209 62.9172 84.3365 62.4916 84.3365 61.9167V61.8172C84.3365 60.5679 83.9662 59.6006 83.2255 58.9151C82.4847 58.2297 81.4179 57.887 80.0249 57.887C78.5546 57.887 77.3882 58.2076 76.5259 58.8488C75.6746 59.49 75.0997 60.2473 74.8012 61.1207L69.1961 60.3247C69.6384 58.7769 70.368 57.4835 71.3851 56.4442C72.4022 55.394 73.646 54.609 75.1163 54.0894C76.5867 53.5588 78.2118 53.2935 79.9918 53.2935C81.2189 53.2935 82.4405 53.4372 83.6566 53.7246C84.8727 54.0121 85.9838 54.4874 86.9898 55.1508C87.9959 55.803 88.8029 56.693 89.411 57.8206C90.0301 58.9483 90.3396 60.3579 90.3396 62.0493V79.0968H84.5687V75.5977H84.3697C84.0049 76.3053 83.4908 76.9686 82.8275 77.5877C82.1752 78.1958 81.3516 78.6877 80.3566 79.0636C79.3727 79.4284 78.2174 79.6109 76.8907 79.6109ZM78.4495 75.1997C79.6546 75.1997 80.6993 74.9621 81.5837 74.4867C82.4682 74.0002 83.1481 73.359 83.6235 72.563C84.1099 71.767 84.3531 70.8992 84.3531 69.9595V66.9579C84.1652 67.1127 83.8446 67.2564 83.3913 67.3891C82.9491 67.5218 82.4516 67.6378 81.8988 67.7373C81.346 67.8368 80.7988 67.9253 80.2571 68.0027C79.7154 68.0801 79.2455 68.1464 78.8475 68.2017C77.952 68.3233 77.1505 68.5223 76.443 68.7987C75.7354 69.0751 75.1771 69.462 74.7681 69.9595C74.359 70.4459 74.1545 71.0761 74.1545 71.85C74.1545 72.9555 74.558 73.7902 75.3651 74.354C76.1721 74.9178 77.2003 75.1997 78.4495 75.1997Z" fill="#8600B5"/>
<path d="M93.4596 79.0968V53.6251H99.1974V57.9533H99.4959C100.027 56.494 100.905 55.3553 102.133 54.5372C103.36 53.708 104.825 53.2935 106.527 53.2935C108.252 53.2935 109.706 53.7136 110.888 54.5538C112.082 55.3829 112.923 56.5161 113.409 57.9533H113.674C114.238 56.5382 115.189 55.4106 116.527 54.5704C117.875 53.7191 119.473 53.2935 121.319 53.2935C123.663 53.2935 125.576 54.0342 127.057 55.5156C128.538 56.997 129.279 59.1584 129.279 61.9996V79.0968H123.259V62.9282C123.259 61.3473 122.839 60.192 121.999 59.4624C121.159 58.7217 120.131 58.3513 118.915 58.3513C117.466 58.3513 116.333 58.8046 115.515 59.7111C114.708 60.6066 114.305 61.773 114.305 63.2102V79.0968H108.418V62.6795C108.418 61.3639 108.02 60.3136 107.224 59.5287C106.439 58.7438 105.411 58.3513 104.139 58.3513C103.277 58.3513 102.492 58.5724 101.784 59.0146C101.077 59.4458 100.513 60.0594 100.093 60.8554C99.6728 61.6403 99.4627 62.5579 99.4627 63.6081V79.0968H93.4596Z" fill="#8600B5"/>
<path fill-rule="evenodd" clip-rule="evenodd" d="M145.674 79.5943C143.12 79.5943 140.914 79.0636 139.057 78.0023C137.211 76.9299 135.79 75.4153 134.795 73.4585C133.8 71.4907 133.303 69.1745 133.303 66.5102C133.303 63.8901 133.8 61.5905 134.795 59.6116C135.801 57.6216 137.205 56.0739 139.007 54.9683C140.809 53.8518 142.926 53.2935 145.359 53.2935C146.929 53.2935 148.41 53.5477 149.803 54.0563C151.207 54.5538 152.445 55.3276 153.518 56.3779C154.601 57.4282 155.452 58.7659 156.071 60.391C156.69 62.0051 157 63.9288 157 66.1619V68.0027L139.256 67.8534C139.256 69.3348 139.527 70.6062 140.069 71.6675C140.61 72.7178 141.368 73.5248 142.341 74.0887C143.313 74.6414 144.452 74.9178 145.757 74.9178C146.63 74.9178 147.42 74.7962 148.128 74.553C148.836 74.2987 149.449 73.9284 149.969 73.4419C150.488 72.9555 150.881 72.353 151.146 71.6344L156.751 72.2645C156.397 73.746 155.723 75.0394 154.728 76.145C153.744 77.2395 152.484 78.0907 150.947 78.6988C149.41 79.2958 147.653 79.5943 145.674 79.5943ZM151.246 63.9564L139.256 64.3212C139.267 63.1825 139.527 62.1378 140.035 61.187C140.555 60.2252 141.279 59.4513 142.208 58.8654C143.137 58.2684 144.214 57.9699 145.442 57.9699C146.591 57.9699 147.597 58.2297 148.46 58.7493C149.333 59.2689 150.013 59.982 150.499 60.8885C150.986 61.784 151.235 62.8066 151.246 63.9564Z" fill="#8600B5"/>
</g>
<defs>
<filter id="filter0_di_35_67" x="0" y="-2" width="192" height="126.179" filterUnits="userSpaceOnUse" color-interpolation-filters="sRGB">
<feFlood flood-opacity="0" result="BackgroundImageFix"/>
<feColorMatrix in="SourceAlpha" type="matrix" values="0 0 0 0 0 0 0 0 0 0 0 0 0 0 0 0 0 0 127 0" result="hardAlpha"/>
<feOffset dx="10" dy="10"/>
<feGaussianBlur stdDeviation="12.5"/>
<feComposite in2="hardAlpha" operator="out"/>
<feColorMatrix type="matrix" values="0 0 0 0 0 0 0 0 0 0 0 0 0 0 0 0 0 0 0.4 0"/>
<feBlend mode="normal" in2="BackgroundImageFix" result="effect1_dropShadow_35_67"/>
<feBlend mode="normal" in="SourceGraphic" in2="effect1_dropShadow_35_67" result="shape"/>
<feColorMatrix in="SourceAlpha" type="matrix" values="0 0 0 0 0 0 0 0 0 0 0 0 0 0 0 0 0 0 127 0" result="hardAlpha"/>
<feOffset dx="13.7338" dy="13.7338"/>
<feGaussianBlur stdDeviation="4.57792"/>
<feComposite in2="hardAlpha" operator="arithmetic" k2="-1" k3="1"/>
<feColorMatrix type="matrix" values="0 0 0 0 1 0 0 0 0 1 0 0 0 0 1 0 0 0 0.45 0"/>
<feBlend mode="normal" in2="shape" result="effect2_innerShadow_35_67"/>
</filter>
</defs>
</svg>
